<svg xmlns="http://www.w3.org/2000/svg" viewBox="0 0 265.3 49.2">
<style type="text/css">
	.neusoft{fill:#1D50A3;}
</style>
<polygon class="neusoft" points="44.9,48.1 32.7,48.1 11.6,16.8 11.6,48.1 0,48.1 0,2.4 15.2,2.4 33.3,28.6 33.3,2.4 44.9,2.4 "/>
<path class="neusoft" d="M75.5,26.4c-0.1-2.4-0.7-4.1-1.9-5.3c-1.1-1.2-3-1.8-5.4-1.8c-2.3,0-4.2,0.6-5.7,1.7C61,22.2,60.2,24,60,26.4
	H75.5 M87.5,32.9H60.1c0.2,2.7,1.3,4.8,3.3,6.3c2.1,1.4,5.1,2.1,9.1,2.1c2.5,0,5-0.4,7.3-1.3c2.4-0.9,4.2-1.8,5.6-2.7h1.3v8.9
	c-2.7,1-5.2,1.7-7.6,2.1c-2.4,0.5-5,0.7-7.9,0.7C63.7,49,58,47.4,54,44.3c-4-3.1-6-7.5-6-13.3c0-5.7,1.9-10.2,5.6-13.5
	c3.8-3.3,8.9-5,15.5-5c6.1,0,10.6,1.5,13.7,4.3c3,2.8,4.6,6.9,4.6,12.2V32.9z"/>
<path class="neusoft" d="M128,48.1h-12v-3.8c-2.2,1.5-4.2,2.7-6,3.5c-1.8,0.8-4,1.2-6.5,1.2c-4.1,0-7.2-1.1-9.5-3.3
	c-2.2-2.2-3.3-5.4-3.3-9.7V13.6h12v17.1c0,1.7,0.1,3.2,0.1,4.3c0.2,1.2,0.4,2.1,0.9,2.9c0.4,0.8,1.1,1.3,1.9,1.7
	c0.8,0.3,2,0.5,3.5,0.5c1,0,2.1-0.2,3.3-0.5c1.2-0.3,2.4-0.8,3.6-1.5V13.6h12V48.1z"/>
<path class="neusoft" d="M166.1,37.2c0,3.5-1.7,6.4-5.2,8.6c-3.5,2.2-8.2,3.3-14.2,3.3c-3.3,0-6.3-0.3-9-0.9c-2.7-0.6-4.9-1.2-6.5-1.9
	v-9h1.1c0.6,0.3,1.3,0.7,2.1,1.2c0.8,0.5,1.9,0.9,3.3,1.4c1.3,0.5,2.6,0.9,4.2,1.2c1.6,0.3,3.2,0.5,5,0.5c2.3,0,4.1-0.2,5.2-0.7
	c1.1-0.5,1.7-1.2,1.7-2.1c0-0.8-0.3-1.5-1-1.8c-0.7-0.4-1.9-0.7-3.8-1.1c-0.9-0.2-2.1-0.4-3.6-0.6c-1.5-0.2-2.9-0.5-4.2-0.8
	c-3.4-0.8-5.9-2.1-7.5-3.8c-1.6-1.7-2.5-3.9-2.5-6.4c0-3.3,1.7-6.1,5.1-8.3c3.4-2.2,8-3.3,13.9-3.3c2.8,0,5.4,0.3,8,0.8
	c2.6,0.6,4.5,1.1,6,1.7v8.7h-1c-1.7-1.1-3.8-2-6-2.7c-2.3-0.7-4.6-1.1-6.9-1.1c-2,0-3.6,0.2-4.9,0.7c-1.3,0.5-2,1.2-2,2.1
	c0,0.8,0.3,1.5,0.9,1.9c0.6,0.4,2,0.9,4.2,1.3c1.2,0.2,2.5,0.5,4,0.7c1.4,0.2,2.8,0.5,4.2,0.8c3.1,0.7,5.5,2,7,3.6
	C165.3,32.7,166.1,34.8,166.1,37.2"/>
<path class="neusoft" d="M194.6,39.3c0.8-0.9,1.4-1.9,1.8-3.2c0.4-1.3,0.6-3,0.6-5.2c0-2-0.2-3.7-0.6-5.1c-0.4-1.4-0.9-2.5-1.6-3.3
	c-0.7-0.8-1.6-1.4-2.6-1.8c-1-0.3-2.1-0.5-3.2-0.5c-1.1,0-2.2,0.1-3.1,0.4c-0.9,0.3-1.8,0.9-2.6,1.7c-0.7,0.8-1.3,1.9-1.7,3.3
	c-0.4,1.4-0.7,3.1-0.7,5.2c0,1.9,0.2,3.5,0.6,5c0.4,1.3,0.9,2.5,1.7,3.3c0.7,0.8,1.6,1.4,2.5,1.7c1,0.4,2.1,0.6,3.4,0.6
	c1.1,0,2.1-0.2,3.1-0.5C193.1,40.6,194,40.1,194.6,39.3 M209.3,30.8c0,5.7-1.8,10.1-5.4,13.4c-3.6,3.2-8.6,4.9-15.1,4.9
	c-6.4,0-11.5-1.6-15.1-4.9c-3.6-3.3-5.3-7.7-5.3-13.4c0-5.7,1.8-10.2,5.4-13.4c3.6-3.2,8.6-4.9,15-4.9c6.5,0,11.6,1.7,15.1,4.9
	C207.6,20.7,209.3,25.2,209.3,30.8"/>
<path class="neusoft" d="M227.7,13.6h14V8.5l11-4.8h1.1v9.8h11.1v7.6h-11v15.5c0,0-0.1,4.8,5.1,4.5c0,0,2.4,0.1,4.7-1h1.2v7.5
	c0,0-6.6,2.1-15.1,0.5c0,0-5.5-0.9-7.2-5.6c0,0-0.9-2-0.9-4.6V21.1H228V48h-12.1V21.1h-5.1v-7.5h5.2c0,0-0.7-7.4,4.2-10.8
	c0,0,5.3-4.5,19.1-2.1v7.8h-1c0,0-8.2-2.5-10.2,1.4C228.1,9.9,227.4,11.6,227.7,13.6"/>
</svg>
